<svg xmlns="http://www.w3.org/2000/svg"><defs><symbol id="tabler-arrow-back-up" viewBox="0 0 24 24" fill="none" stroke="currentColor" stroke-width="2" stroke-linecap="round" stroke-linejoin="round"><path stroke="none" d="M0 0h24v24H0z" fill="none"/><path d="M9 13l-4 -4l4 -4m-4 4h11a4 4 0 0 1 0 8h-1" /></symbol><symbol id="tabler-at" viewBox="0 0 24 24" fill="none" stroke="currentColor" stroke-width="2" stroke-linecap="round" stroke-linejoin="round"><path stroke="none" d="M0 0h24v24H0z" fill="none"/><circle cx="12" cy="12" r="4" /><path d="M16 12v1.5a2.5 2.5 0 0 0 5 0v-1.5a9 9 0 1 0 -5.5 8.28" /></symbol><symbol id="tabler-blockquote" viewBox="0 0 24 24" fill="none" stroke="currentColor" stroke-width="2" stroke-linecap="round" stroke-linejoin="round"><path stroke="none" d="M0 0h24v24H0z" fill="none"/><path d="M6 15h15" /><path d="M21 19h-15" /><path d="M15 11h6" /><path d="M21 7h-6" /><path d="M9 9h1a1 1 0 1 1 -1 1v-2.5a2 2 0 0 1 2 -2" /><path d="M3 9h1a1 1 0 1 1 -1 1v-2.5a2 2 0 0 1 2 -2" /></symbol><symbol id="tabler-box" viewBox="0 0 24 24" fill="none" stroke="currentColor" stroke-width="2" stroke-linecap="round" stroke-linejoin="round"><path stroke="none" d="M0 0h24v24H0z" fill="none"/><polyline points="12 3 20 7.5 20 16.5 12 21 4 16.5 4 7.5 12 3" /><line x1="12" y1="12" x2="20" y2="7.5" /><line x1="12" y1="12" x2="12" y2="21" /><line x1="12" y1="12" x2="4" y2="7.5" /></symbol><symbol id="tabler-checkbox" viewBox="0 0 24 24" fill="none" stroke="currentColor" stroke-width="2" stroke-linecap="round" stroke-linejoin="round"><path stroke="none" d="M0 0h24v24H0z" fill="none"/><polyline points="9 11 12 14 20 6" /><path d="M20 12v6a2 2 0 0 1 -2 2h-12a2 2 0 0 1 -2 -2v-12a2 2 0 0 1 2 -2h9" /></symbol><symbol id="tabler-chevron-down" viewBox="0 0 24 24" fill="none" stroke="currentColor" stroke-width="2" stroke-linecap="round" stroke-linejoin="round"><path stroke="none" d="M0 0h24v24H0z" fill="none"/><polyline points="6 9 12 15 18 9" /></symbol><symbol id="tabler-chevron-right" viewBox="0 0 24 24" fill="none" stroke="currentColor" stroke-width="2" stroke-linecap="round" stroke-linejoin="round"><path stroke="none" d="M0 0h24v24H0z" fill="none"/><polyline points="9 6 15 12 9 18" /></symbol><symbol id="tabler-circle-plus" viewBox="0 0 24 24" fill="none" stroke="currentColor" stroke-width="2" stroke-linecap="round" stroke-linejoin="round"><path stroke="none" d="M0 0h24v24H0z" fill="none"/><circle cx="12" cy="12" r="9" /><line x1="9" y1="12" x2="15" y2="12" /><line x1="12" y1="9" x2="12" y2="15" /></symbol><symbol id="tabler-circle-x" viewBox="0 0 24 24" fill="none" stroke="currentColor" stroke-width="2" stroke-linecap="round" stroke-linejoin="round"><path stroke="none" d="M0 0h24v24H0z" fill="none"/><circle cx="12" cy="12" r="9" /><path d="M10 10l4 4m0 -4l-4 4" /></symbol><symbol id="tabler-database" viewBox="0 0 24 24" fill="none" stroke="currentColor" stroke-width="2" stroke-linecap="round" stroke-linejoin="round"><path stroke="none" d="M0 0h24v24H0z" fill="none"/><ellipse cx="12" cy="6" rx="8" ry="3"></ellipse><path d="M4 6v6a8 3 0 0 0 16 0v-6" /><path d="M4 12v6a8 3 0 0 0 16 0v-6" /></symbol><symbol id="tabler-device-floppy" viewBox="0 0 24 24" fill="none" stroke="currentColor" stroke-width="2" stroke-linecap="round" stroke-linejoin="round"><path stroke="none" d="M0 0h24v24H0z" fill="none"/><path d="M6 4h10l4 4v10a2 2 0 0 1 -2 2h-12a2 2 0 0 1 -2 -2v-12a2 2 0 0 1 2 -2" /><circle cx="12" cy="14" r="2" /><polyline points="14 4 14 8 8 8 8 4" /></symbol><symbol id="tabler-dots" viewBox="0 0 24 24" fill="none" stroke="currentColor" stroke-width="2" stroke-linecap="round" stroke-linejoin="round"><path stroke="none" d="M0 0h24v24H0z" fill="none"/><circle cx="5" cy="12" r="1" /><circle cx="12" cy="12" r="1" /><circle cx="19" cy="12" r="1" /></symbol><symbol id="tabler-file-info" viewBox="0 0 24 24" fill="none" stroke="currentColor" stroke-width="2" stroke-linecap="round" stroke-linejoin="round"><path stroke="none" d="M0 0h24v24H0z" fill="none"/><path d="M14 3v4a1 1 0 0 0 1 1h4" /><path d="M17 21h-10a2 2 0 0 1 -2 -2v-14a2 2 0 0 1 2 -2h7l5 5v11a2 2 0 0 1 -2 2z" /><path d="M11 14h1v4h1" /><path d="M12 11h.01" /></symbol><symbol id="tabler-hand-finger" viewBox="0 0 24 24" fill="none" stroke="currentColor" stroke-width="2" stroke-linecap="round" stroke-linejoin="round"><path stroke="none" d="M0 0h24v24H0z" fill="none"/><path d="M8 13v-8.5a1.5 1.5 0 0 1 3 0v7.5" /><path d="M11 11.5v-2a1.5 1.5 0 1 1 3 0v2.5" /><path d="M14 10.5a1.5 1.5 0 0 1 3 0v1.5" /><path d="M17 11.5a1.5 1.5 0 0 1 3 0v4.5a6 6 0 0 1 -6 6h-2h.208a6 6 0 0 1 -5.012 -2.7a69.74 69.74 0 0 1 -.196 -.3c-.312 -.479 -1.407 -2.388 -3.286 -5.728a1.5 1.5 0 0 1 .536 -2.022a1.867 1.867 0 0 1 2.28 .28l1.47 1.47" /></symbol><symbol id="tabler-heading" viewBox="0 0 24 24" fill="none" stroke="currentColor" stroke-width="2" stroke-linecap="round" stroke-linejoin="round"><path stroke="none" d="M0 0h24v24H0z" fill="none"/><path d="M7 12h10" /><path d="M7 4v16" /><path d="M17 4v16" /><path d="M15 20h4" /><path d="M15 4h4" /><path d="M5 20h4" /><path d="M5 4h4" /></symbol><symbol id="tabler-info-circle" viewBox="0 0 24 24" fill="none" stroke="currentColor" stroke-width="2" stroke-linecap="round" stroke-linejoin="round"><path stroke="none" d="M0 0h24v24H0z" fill="none"/><circle cx="12" cy="12" r="9" /><line x1="12" y1="8" x2="12.01" y2="8" /><polyline points="11 12 12 12 12 16 13 16" /></symbol><symbol id="tabler-layout-columns" viewBox="0 0 24 24" fill="none" stroke="currentColor" stroke-width="2" stroke-linecap="round" stroke-linejoin="round"><path stroke="none" d="M0 0h24v24H0z" fill="none"/><rect x="4" y="4" width="16" height="16" rx="2" /><line x1="12" y1="4" x2="12" y2="20" /></symbol><symbol id="tabler-layout-list" viewBox="0 0 24 24" fill="none" stroke="currentColor" stroke-width="2" stroke-linecap="round" stroke-linejoin="round"><path stroke="none" d="M0 0h24v24H0z" fill="none"/><rect x="4" y="4" width="16" height="6" rx="2" /><rect x="4" y="14" width="16" height="6" rx="2" /></symbol><symbol id="tabler-layout-rows" viewBox="0 0 24 24" fill="none" stroke="currentColor" stroke-width="2" stroke-linecap="round" stroke-linejoin="round"><path stroke="none" d="M0 0h24v24H0z" fill="none"/><rect x="4" y="4" width="16" height="16" rx="2" /><line x1="4" y1="12" x2="20" y2="12" /></symbol><symbol id="tabler-letter-p" viewBox="0 0 24 24" fill="none" stroke="currentColor" stroke-width="2" stroke-linecap="round" stroke-linejoin="round"><path stroke="none" d="M0 0h24v24H0z" fill="none"/><path d="M7 20v-16h5.5a4 4 0 0 1 0 9h-5.5" /></symbol><symbol id="tabler-letter-t" viewBox="0 0 24 24" fill="none" stroke="currentColor" stroke-width="2" stroke-linecap="round" stroke-linejoin="round"><path stroke="none" d="M0 0h24v24H0z" fill="none"/><line x1="6" y1="4" x2="18" y2="4" /><line x1="12" y1="4" x2="12" y2="20" /></symbol><symbol id="tabler-lifebuoy" viewBox="0 0 24 24" fill="none" stroke="currentColor" stroke-width="2" stroke-linecap="round" stroke-linejoin="round"><path stroke="none" d="M0 0h24v24H0z" fill="none"/><circle cx="12" cy="12" r="4" /><circle cx="12" cy="12" r="9" /><line x1="15" y1="15" x2="18.35" y2="18.35" /><line x1="9" y1="15" x2="5.65" y2="18.35" /><line x1="5.65" y1="5.65" x2="9" y2="9" /><line x1="18.35" y1="5.65" x2="15" y2="9" /></symbol><symbol id="tabler-map-pin" viewBox="0 0 24 24" fill="none" stroke="currentColor" stroke-width="2" stroke-linecap="round" stroke-linejoin="round"><path stroke="none" d="M0 0h24v24H0z" fill="none"/><circle cx="12" cy="11" r="3" /><path d="M17.657 16.657l-4.243 4.243a2 2 0 0 1 -2.827 0l-4.244 -4.243a8 8 0 1 1 11.314 0z" /></symbol><symbol id="tabler-menu-2" viewBox="0 0 24 24" fill="none" stroke="currentColor" stroke-width="2" stroke-linecap="round" stroke-linejoin="round"><path stroke="none" d="M0 0h24v24H0z" fill="none"/><line x1="4" y1="6" x2="20" y2="6" /><line x1="4" y1="12" x2="20" y2="12" /><line x1="4" y1="18" x2="20" y2="18" /></symbol><symbol id="tabler-message-2" viewBox="0 0 24 24" fill="none" stroke="currentColor" stroke-width="2" stroke-linecap="round" stroke-linejoin="round"><path stroke="none" d="M0 0h24v24H0z" fill="none"/><path d="M12 20l-3 -3h-2a3 3 0 0 1 -3 -3v-6a3 3 0 0 1 3 -3h10a3 3 0 0 1 3 3v6a3 3 0 0 1 -3 3h-2l-3 3" /><line x1="8" y1="9" x2="16" y2="9" /><line x1="8" y1="13" x2="14" y2="13" /></symbol><symbol id="tabler-palette" viewBox="0 0 24 24" fill="none" stroke="currentColor" stroke-width="2" stroke-linecap="round" stroke-linejoin="round"><path stroke="none" d="M0 0h24v24H0z" fill="none"/><path d="M12 21a9 9 0 1 1 0 -18a9 8 0 0 1 9 8a4.5 4 0 0 1 -4.5 4h-2.5a2 2 0 0 0 -1 3.75a1.3 1.3 0 0 1 -1 2.25" /><circle cx="7.5" cy="10.5" r=".5" fill="currentColor" /><circle cx="12" cy="7.5" r=".5" fill="currentColor" /><circle cx="16.5" cy="10.5" r=".5" fill="currentColor" /></symbol><symbol id="tabler-pencil" viewBox="0 0 24 24" fill="none" stroke="currentColor" stroke-width="2" stroke-linecap="round" stroke-linejoin="round"><path stroke="none" d="M0 0h24v24H0z" fill="none"/><path d="M4 20h4l10.5 -10.5a1.5 1.5 0 0 0 -4 -4l-10.5 10.5v4" /><line x1="13.5" y1="6.5" x2="17.5" y2="10.5" /></symbol><symbol id="tabler-photo" viewBox="0 0 24 24" fill="none" stroke="currentColor" stroke-width="2" stroke-linecap="round" stroke-linejoin="round"><path stroke="none" d="M0 0h24v24H0z" fill="none"/><line x1="15" y1="8" x2="15.01" y2="8" /><rect x="4" y="4" width="16" height="16" rx="3" /><path d="M4 15l4 -4a3 5 0 0 1 3 0l5 5" /><path d="M14 14l1 -1a3 5 0 0 1 3 0l2 2" /></symbol><symbol id="tabler-plus" viewBox="0 0 24 24" fill="none" stroke="currentColor" stroke-width="2" stroke-linecap="round" stroke-linejoin="round"><path stroke="none" d="M0 0h24v24H0z" fill="none"/><line x1="12" y1="5" x2="12" y2="19" /><line x1="5" y1="12" x2="19" y2="12" /></symbol><symbol id="tabler-question-mark" viewBox="0 0 24 24" fill="none" stroke="currentColor" stroke-width="2" stroke-linecap="round" stroke-linejoin="round"><path stroke="none" d="M0 0h24v24H0z" fill="none"/><path d="M8 8a3.5 3 0 0 1 3.5 -3h1a3.5 3 0 0 1 3.5 3a3 3 0 0 1 -2 3a3 4 0 0 0 -2 4" /><line x1="12" y1="19" x2="12" y2="19.01" /></symbol><symbol id="tabler-search" viewBox="0 0 24 24" fill="none" stroke="currentColor" stroke-width="2" stroke-linecap="round" stroke-linejoin="round"><path stroke="none" d="M0 0h24v24H0z" fill="none"/><circle cx="10" cy="10" r="7" /><line x1="21" y1="21" x2="15" y2="15" /></symbol><symbol id="tabler-send" viewBox="0 0 24 24" fill="none" stroke="currentColor" stroke-width="2" stroke-linecap="round" stroke-linejoin="round"><path stroke="none" d="M0 0h24v24H0z" fill="none"/><line x1="10" y1="14" x2="21" y2="3" /><path d="M21 3l-6.5 18a0.55 .55 0 0 1 -1 0l-3.5 -7l-7 -3.5a0.55 .55 0 0 1 0 -1l18 -6.5" /></symbol><symbol id="tabler-star" viewBox="0 0 24 24" fill="none" stroke="currentColor" stroke-width="2" stroke-linecap="round" stroke-linejoin="round"><path stroke="none" d="M0 0h24v24H0z" fill="none"/><path d="M12 17.75l-6.172 3.245l1.179 -6.873l-5 -4.867l6.9 -1l3.086 -6.253l3.086 6.253l6.9 1l-5 4.867l1.179 6.873z" /></symbol><symbol id="tabler-writing" viewBox="0 0 24 24" fill="none" stroke="currentColor" stroke-width="2" stroke-linecap="round" stroke-linejoin="round"><path stroke="none" d="M0 0h24v24H0z" fill="none"/><path d="M20 17v-12c0 -1.121 -.879 -2 -2 -2s-2 .879 -2 2v12l2 2l2 -2z" /><path d="M16 7h4" /><path d="M18 19h-13a2 2 0 1 1 0 -4h4a2 2 0 1 0 0 -4h-3" /></symbol><symbol id="tabler-x" viewBox="0 0 24 24" fill="none" stroke="currentColor" stroke-width="2" stroke-linecap="round" stroke-linejoin="round"><path stroke="none" d="M0 0h24v24H0z" fill="none"/><line x1="18" y1="6" x2="6" y2="18" /><line x1="6" y1="6" x2="18" y2="18" /></symbol></defs></svg>